<svg width="128" height="128" viewBox="0 0 128 128" fill="none" xmlns="http://www.w3.org/2000/svg">
<path d="M126 18.0368C126 16.5462 125.137 15.1915 123.789 14.5668L95.2775 1.35182C93.9048 0.7156 92.2873 0.955664 91.1566 1.96343L44.5373 43.5134C43.3576 44.5648 43.4091 46.4309 44.6449 47.4152L59.2124 59.0177C60.08 59.7087 61.2938 59.7548 62.2109 59.1315L91.0384 39.5393C91.8808 38.9668 93.0179 39.5728 93.0179 40.5943V88.7398C93.0179 89.7969 91.8098 90.3941 90.9756 89.7493L31.0412 43.4225C22.2793 36.6499 9.84284 37.5985 2.2001 45.6225C1.91755 45.9192 1.93662 46.3921 2.24214 46.6648L91.1563 126.035C92.287 127.044 93.9058 127.285 95.2794 126.648L123.789 113.434C125.137 112.809 126 111.455 126 109.964V18.0368Z" fill="#ED1846"/>
</svg>
